<svg xmlns="http://www.w3.org/2000/svg" viewBox="0 0 200 200">
  <defs>
    <linearGradient id="grad1" x1="0%" y1="0%" x2="100%" y2="100%">
      <stop offset="0%" style="stop-color:#2ecc71;stop-opacity:1" />
      <stop offset="100%" style="stop-color:#27ae60;stop-opacity:1" />
    </linearGradient>
  </defs>
  
  <!-- Circle background -->
  <circle cx="100" cy="100" r="95" fill="white" stroke="#2ecc71" stroke-width="3"/>
  
  <!-- Power tower -->
  <path d="M85 180 L100 80 L115 180 Z" fill="none" stroke="#333" stroke-width="3"/>
  <line x1="88" y1="120" x2="112" y2="120" stroke="#333" stroke-width="2"/>
  <line x1="90" y1="140" x2="110" y2="140" stroke="#333" stroke-width="2"/>
  <line x1="92" y1="160" x2="108" y2="160" stroke="#333" stroke-width="2"/>
  
  <!-- Power lines -->
  <path d="M50 70 Q100 55 150 70" fill="none" stroke="#333" stroke-width="2"/>
  <path d="M55 85 Q100 70 145 85" fill="none" stroke="#333" stroke-width="2"/>
  
  <!-- Drone -->
  <g transform="translate(130, 45)">
    <!-- Drone body -->
    <rect x="-15" y="-5" width="30" height="10" rx="3" fill="url(#grad1)"/>
    <!-- Arms -->
    <line x1="-15" y1="0" x2="-25" y2="-10" stroke="#2ecc71" stroke-width="2"/>
    <line x1="15" y1="0" x2="25" y2="-10" stroke="#2ecc71" stroke-width="2"/>
    <line x1="-15" y1="0" x2="-25" y2="10" stroke="#2ecc71" stroke-width="2"/>
    <line x1="15" y1="0" x2="25" y2="10" stroke="#2ecc71" stroke-width="2"/>
    <!-- Propellers -->
    <circle cx="-25" cy="-10" r="8" fill="none" stroke="#666" stroke-width="1.5"/>
    <circle cx="25" cy="-10" r="8" fill="none" stroke="#666" stroke-width="1.5"/>
    <circle cx="-25" cy="10" r="8" fill="none" stroke="#666" stroke-width="1.5"/>
    <circle cx="25" cy="10" r="8" fill="none" stroke="#666" stroke-width="1.5"/>
  </g>
  
  <!-- Text -->
  <text x="100" y="195" text-anchor="middle" font-family="Arial, sans-serif" font-size="10" fill="#2ecc71" font-weight="bold">DRONES4ENERGY</text>
</svg>
